<?xml version="1.0" encoding="UTF-8"?>
<svg width="77.252mm" height="67.679mm" version="1.1" viewBox="0 0 273.7291 239.80864"
     xmlns="http://www.w3.org/2000/svg">
    <g transform="translate(-191.71 -63.886)" stroke="#000">
        <path d="m460.62 292.77c-116.43 25.258-150.69-6.4685-242.86 9.2857-17.214 2.9423 24.258-29.735 22.857-47.143-4.2569-52.881 10.673-48.456 2.8571-70.714-4.8085-13.694-14.709-28.558-28.571-32.857-6.3431-1.967-15.475 10.439-19.286 5-2.6525-3.7863 8.3591-6.8329 7.8571-11.429-0.53043-4.8564-13.155-5.7682-10.714-10 2.86-4.9585 11.908 8.5114 16.429 5 4.1411-3.2165-5.8511-14.662-0.71428-15.714 5.9786-1.225 0.94546 14.463 6.4286 17.143 3.5859 1.7524 8.8739-6.6379 11.429-3.5714 3.2722 3.9277-9.0221 10.219-4.2857 12.143 14.796 6.0091 27.143 25 27.143 25 10.891 8.3224 10.83-18.305 9.7982-39.668 16.339-25.33 5.4672-6.9099 10.613-17.572 1.8024 0.75188 22.446-10.617 22.446-10.617 39.838-11.102 34.913 2.0235 59.286 1.4286 37.04 20.049 32.71 7.0684 37.143 48.571 1.9712 15.384 33.932-8.12 37.143-17.143 2.3246-6.5321-11.952-16.972-5.7143-20 4.7559-2.3085 4.0007 12.727 9.2857 12.857 6.0964 0.15017 5.5414-15.876 11.429-14.286 6.2739 1.6948-1.227 14.231 2.8571 19.286 2.5569 3.1648 12.254 0.3018 11.429 4.2857-0.96761 4.6686-11.155-4.3105-14.286-0.71428-3.3419 3.8391 7.4278 12.76 2.8571 15-4.8474 2.3751-5.3164-12.182-10.714-12.143-13.17 0.0945-23.627 23.169-25.714 30-7.8571 25.714 2.9796 43.235 0 51.429-8.5714 23.571-5.7143 33.571 10.714 35.714 9.9413 1.2967 61.592 27.364 42.857 31.429z"
              fill="#8d10ff" fill-rule="evenodd" stroke-width="1.5"/>
        <path d="m331.34 142.42c0 11.637 2.1207 19.286 11.786 19.286s23.214-7.6483 23.214-19.286-14.148-22.082-23.813-22.082-11.187 10.444-11.187 22.082z"
              fill="#fff6d5" stroke-linecap="round" stroke-linejoin="round" stroke-width="2"/>
        <path d="m278.93 143.11c0 8.2472 9.6548 13.147 18.481 13.147 8.8259 0 14.838-6.0326 14.838-14.28 0-8.2472-14.226-15.943-23.052-15.943-8.8259 0-10.266 8.8285-10.266 17.076z"
              fill="#fff6d5" stroke-linecap="round" stroke-linejoin="round" stroke-width="1.4671"/>
        <ellipse transform="scale(-1,1)" cx="-337.94" cy="139.92" rx="2.6786" ry="3.2143" stroke-linecap="round"
                 stroke-linejoin="round" stroke-width="2"/>
        <ellipse transform="scale(-1,1)" cx="-303.12" cy="141.88" rx="2.8571" ry="3.0357" stroke-linecap="round"
                 stroke-linejoin="round" stroke-width="2"/>
        <path d="m368.1 162.84s-16.415 19.698-13.132 25.254c3.283 5.5558 7.5762 12.374 8.3338 21.466 0.75762 9.0914-1.7678 27.779-7.5761 30.557-5.8084 2.7779-15.91 3.5355-20.203 10.354s-1.5994 18.707-2.7779 21.718c-4.5457 11.617-11.364 19.445-23.486 15.91s-25.001-9.5964-24.749-20.708c0.25253-11.112 3.8415-23.924 6.3134-29.294l7.3236-15.91c6.3134-14.142 2.2728-24.496-2.7779-28.537s-11.236-6.2154-14.395-10.354c-7.3236-9.5964-16.92-15.152-16.92-15.152s10.102 7.5761 24.749 12.627c14.647 5.0508 30.305 5.0508 39.901 3.7881 9.5964-1.2627 25.759-8.0812 29.294-13.385 3.5355-5.3033 10.102-8.3338 10.102-8.3338z"
              fill="#2b2200" fill-rule="evenodd" stroke-width="1px"/>
        <path d="m410.02 274.46c4.2932 6.8268 10.146 15.152 17.678 15.152s8.0812-3.5273 8.0812-11.617-10.399-15.657-17.93-15.657-12.135 5.274-7.8287 12.122z"
              fill="#ff9015" stroke-linecap="round" stroke-linejoin="round" stroke-width="2"/>
        <path d="m379.72 122.69s15.92-22.453 14.142-31.567c-2.0203-10.354-13.388-24.231-21.971-26.264-9.5964-2.2728 13.637 13.637 5.0508 28.284-2.5286 4.3135-16.162 14.647-22.223 16.668-2.3958 0.7986 3.0338 6.607 10.072 9.4378s14.929 3.4417 14.929 3.4417z"
              fill="#fff6d5" fill-rule="evenodd" stroke-width="1.5"/>
        <path d="m259.05 134.53s-22.264-16.184-23.493-25.388c-1.3963-10.457 4.9372-27.24 12.42-31.91 8.366-5.2219-8.5609 17.281 4.2579 28.414 3.775 3.2786 19.997 8.7106 26.386 8.687 2.5254-9e-3 -0.76204 7.2302-6.5261 12.163-5.7641 4.9327-13.045 8.0343-13.045 8.0343z"
              fill="#fff6d5" fill-rule="evenodd" stroke-width="1.5"/>
        <path d="m345.63 242.89s-23.486-8.5863-31.062-3.7881c-7.5762 4.7982-11.617-6.566-18.94-4.5457-7.3236 2.0203-3.7881 2.2728-3.7881 2.2728s-9.3144 21.113-6.566 35.103c0 0 8.6278 16.104 29.042 17.93 0 0 19.503-5.413 18.94-19.951-0.91559-23.674 12.374-27.022 12.374-27.022z"
              fill="#f60b19" fill-rule="evenodd" stroke-width="1px"/>
        <path d="m388.61 207.62c-0.90933 8.013-3.679 18.528 2.2039 23.231s8.5147 2.2908 13.566-4.0278 1.6542-18.723-4.2286-23.426-10.629-3.815-11.541 4.2229z"
              fill="#ff9015" stroke-linecap="round" stroke-linejoin="round" stroke-width="2"/>
        <path d="m381.82 261.42c1.4624 1.4508 3.132 3.6706 5.006 3.2357 1.8741-0.43488 1.8072-1.3443 1.3401-3.3572-0.46709-2.0129-3.4916-3.2956-5.3657-2.8607-1.8741 0.43489-2.4474 1.5269-0.98045 2.9822z"
              fill="#ff9015" stroke-linecap="round" stroke-linejoin="round" stroke-width=".51088"/>
        <path d="m372.11 264c4.5853-3.2127 5.7714-8.124 5.5111-13.346-0.26037-5.2223-2.7251-5.4815-8.3342-5.202-5.6091 0.27953-10.497 7.7514-10.237 12.974 0.26037 5.2223 8.4607 8.7973 13.06 5.5746z"
              fill="#ff9015" stroke-linecap="round" stroke-linejoin="round" stroke-width="1.3885"/>
        <path d="m330.48 177.75c2.5146-1.7619 3.1651-4.4553 3.0223-7.3193-0.14279-2.864-1.4945-3.0061-4.5706-2.8528s-5.7568 4.251-5.6141 7.1149c0.14279 2.864 4.64 4.8245 7.1624 3.0572z"
              fill="#ff9015" stroke-linecap="round" stroke-linejoin="round" stroke-width=".76147"/>
        <path d="m312.84 176.4c0.27829-1.6499-0.51809-2.9327-1.6841-3.973s-1.7383-0.57011-2.8557 0.68229-0.55272 3.8604 0.61329 4.9006c1.166 1.0403 3.6474 0.0451 3.9265-1.6099z"
              fill="#ff9015" stroke-linecap="round" stroke-linejoin="round" stroke-width=".41495"/>
        <path d="m254.76 222.03c2.5146-1.7619 3.1651-4.4553 3.0223-7.3193-0.14279-2.864-1.4945-3.0061-4.5706-2.8528s-5.7568 4.251-5.6141 7.1149c0.14279 2.864 4.64 4.8245 7.1624 3.0572z"
              fill="#ff9015" stroke-linecap="round" stroke-linejoin="round" stroke-width=".76147"/>
        <path d="m265.08 266.91c3.3333-2.3355 4.1955-5.9058 4.0063-9.7022-0.18928-3.7964-3.7488-6.2577-7.8264-6.0545-4.0776 0.20321-5.6741 11.704-5.6741 11.704 0.18928 3.7964 6.1506 6.3952 9.4942 4.0525z"
              fill="#ff9015" stroke-linecap="round" stroke-linejoin="round" stroke-width="1.0094"/>
        <path d="m349.03 178.67-5.0116 1.893c-1.2842 0.48505-1.9275 1.9094-1.4424 3.1935 0.48505 1.2842 2.3221 2.9673 3.509 2.2777l4.6961-2.7282c1.187-0.68956 1.0291-1.7609 0.54409-3.0451-0.48506-1.2842-1.011-2.0759-2.2952-1.5909z"
              fill="#fff" stroke-linecap="round" stroke-linejoin="round" stroke-width="1.4015"/>
        <path d="m332.56 184.45-5.3234 0.60012c-1.3641 0.15377-2.3384 1.3757-2.1847 2.7398s0.93921 1.3185 2.3041 1.4648l6.1163 0.65549c1.3649 0.14628 1.0741-1.9889 0.92029-3.3529-0.15378-1.3641-0.4685-2.261-1.8326-2.1072z"
              fill="#fff" stroke-linecap="round" stroke-linejoin="round" stroke-width="1.4015"/>
        <path d="m316.98 185.87-5.3517-0.24192c-1.3713-0.062-2.5252 0.99209-2.5872 2.3634s0.32393 4.1912 1.6896 4.0526l6.2942-0.63844c1.3657-0.13852 1.3726-1.7959 1.4346-3.1672s-0.10822-2.3065-1.4795-2.3685z"
              fill="#fff" stroke-linecap="round" stroke-linejoin="round" stroke-width="1.4015"/>
        <path d="m296.96 183.34-5.1991-1.3004c-1.2604-0.31525-0.33907 0.64814-0.39775 1.9461-0.0587 1.2979-0.26185 1.1409 0.89069 1.7406l4.8826 2.5406c1.1525 0.59969 1.2991-1.6997 1.3578-2.9976s-0.27386-1.614-1.5343-1.9292z"
              fill="#fff" stroke-linecap="round" stroke-linejoin="round" stroke-width="1.3264"/>
    </g>
</svg>
